<?xml version="1.0" encoding="utf-8"?>
<!-- Generator: Adobe Illustrator 19.1.0, SVG Export Plug-In . SVG Version: 6.00 Build 0)  -->
<!DOCTYPE svg PUBLIC "-//W3C//DTD SVG 1.1//EN" "http://www.w3.org/Graphics/SVG/1.1/DTD/svg11.dtd">
<svg version="1.1" id="Layer_1" xmlns="http://www.w3.org/2000/svg" xmlns:xlink="http://www.w3.org/1999/xlink" x="0px" y="0px"
	 viewBox="0 0 322 172" enable-background="new 0 0 322 172" xml:space="preserve">
<g>
	<g>
		<path fill="#99D3BE" d="M76.9,135.9c0.2,1.8,0.6,3.5,1.3,5.1c1.7,3.9,5.7,8.5,10.1,9.5c4.7,1,9.3-4.2,10.7-8.4
			c0.4-1.2,0.4-2.9-0.8-3.3c-0.8-0.3-1.6,0.2-2.1,0.8c-0.5,0.6-0.8,1.4-1.3,2c-1.9,2.3-5.8,1.9-8.1-0.1s-3.2-5-4-7.9
			s-1.6-5.9-3.7-8.1C77.3,128.6,76.6,132.3,76.9,135.9z"/>
		<path fill="#99D3BE" d="M78.1,73.6c1.3,7.4,0.9,14.6,2.3,22c1.3,6.9,2.9,13.4,2.4,20.6c-0.3,5.4,0.1,10.9-1,16.2
			c-1.5,7.2-7.1,22.4-15.6,19.8c-2.7-0.8-4.7-3.4-5.9-6.3c-2.8-7.2-2.7-18-2.3-25.7c0.3-5.7,0.5-11.5,0.7-17.2
			C59,92,58.5,81,57.7,69.9c-0.7-10.6-2-21.4-1.2-32.1c0.2-2.1,0.4-4.2,1-6.2c2-6.5,11.6-12.7,15.5-4.4c2.1,4.5,2.8,11.6,3.3,16.7
			l1.7,29.1L78.1,73.6z M72.6,73.3c0-0.4-0.1-0.9-0.1-1.3c-1.3-13.3-0.5-26.8-3.2-39.8c-0.2-0.9-0.4-1.8-1.1-2.4
			c-1.5-1.2-3.7,0.3-4.7,1.9c-1.8,3.2-1.7,7-1.6,10.7c0.8,27.8,1.6,55.6,2.4,83.4c0.1,4.8,0.3,9.6,0.7,14.3c0.1,1.5,0,4.1,1.3,5.2
			c1.3,1.1,3.5,0.4,4.6-0.5c1.3-1,2-2.5,2.7-3.9c4.8-10.6,5.2-22.7,4-34.3C76.3,95.4,73.8,84.4,72.6,73.3z"/>
	</g>
	<g>
		<path fill="#99D4BF" d="M134.2,108.6c0.6,4.5-0.5,8.5,0.1,13c0.6,4.2,1.5,8.3,0.4,12.3c-0.9,3-1,6.2-2.5,9
			c-2.1,3.8-9.1,11.2-17.2,7.9c-2.5-1-4.3-3-5.1-4.8c-2.1-4.7-0.9-10.8,0.2-15.1c0.8-3.2,1.6-6.4,2.3-9.6c1.4-6.3,2-12.6,2.3-19.1
			c0.3-6.2,0.1-12.6,1.9-18.5c0.4-1.2,0.8-2.3,1.5-3.3c2.6-3.2,12.6-4.7,15.6,0.9c1.6,3,1.6,7.2,1.6,10.2 M130,87.4
			c0.1-1.5-0.6-3.2-0.6-4.7c-0.1-2.7-4.9-2-6.2-0.7c-1,1.1-1.7,2.3-2.1,3.6c-2.5,9.9-0.8,20.7-2.7,30.7c-0.8,4.5-1.9,8.9-2.7,13.3
			c-0.8,4.4-1,8.8-1.4,13.3c-0.1,1.6,0.3,4.2,3.4,4.7c4.1,0.7,7.9-4.1,9.2-6.1c2.1-3,3.1-6.6,3.2-10.2c0.4-7.8-0.7-15.8-1.5-23.7"/>
		<path fill="#99D4BF" d="M113.2,23.7c-0.2-1.5-2.3-1.5-2.5,0c-2.3,17.1-0.3,34.6,0.6,51.7c1.1,22.7,2.4,46.2-0.7,69.2
			c1.5,0.1,0.6,0.2,1-0.1c1.2-0.9,1.9-4.3,2.4-5.9c1.3-4.7,1.7-9.8,2.1-14.7C118.6,90,117.6,56.2,113.2,23.7z"/>
	</g>
	<path fill="#99D3BE" d="M169.1,74.7c1.3,7.2,0.9,14.3,2.2,21.5c1.2,6.8,2.8,13.1,2.4,20.2c-0.3,5.2,0.1,10.7-1,15.8
		c-1.4,7-7,21.9-15.3,19.4c-2.6-0.8-4.6-3.3-5.7-6.1c-2.8-7-2.6-17.6-2.3-25.1c0.3-5.6,0.5-11.2,0.7-16.8
		c0.3-10.9-0.2-21.6-0.9-32.5c-0.7-10.4-1.9-20.9-1.2-31.3c0.1-2,0.3-4.1,1-6c2-6.3,11.3-12.4,15.1-4.3c2.1,4.4,2.7,11.4,3.2,16.3
		l1.7,28.5L169.1,74.7z M163.6,74.3c0-0.4-0.1-0.9-0.1-1.3c-1.3-13-0.5-26.2-3.2-38.9c-0.2-0.9-0.4-1.8-1.1-2.3
		c-1.5-1.2-3.7,0.2-4.6,1.9c-1.8,3.1-1.7,6.9-1.6,10.4c0.8,27.2,1.5,54.4,2.3,81.5c0.1,4.7,0.3,9.3,0.7,14c0.1,1.5,0,4,1.3,5.1
		c1.3,1.1,3.4,0.4,4.5-0.5c1.2-1,2-2.4,2.6-3.8c4.7-10.4,5.1-22.2,3.9-33.6C167.3,96,164.8,85.2,163.6,74.3z"/>
	<path fill="#99D3BE" d="M211.7,123c-0.9,13.1-3.8,25.9-12.1,28.1c-7.3,1.9-10.5-6.4-11.9-14.7c-0.8-4.7-0.8-9.4-1.2-14.1
		c-2.5-30.6-0.7-61.5-2.3-92.1c-0.1-1.8,0.8-3.5,1.9-4c3.9-1.6,3.4,16.6,3.6,20c0.4,10.6-0.2,21.2,0.1,31.8
		c0.4,12,0.1,24.3,0.8,36.2c0.5,7.3,0.2,14.8,1.8,21.8c0.6,2.7,1.8,7.7,3.8,8.6c2.2,1,5.2-1.9,6.2-4.4c3.1-7.4,4.2-15.6,4.2-24.1
		c0.1-17.8-1.2-37.2-3.6-54.9c-1-7.6-2.7-15-3.6-22.6c-0.3-2.6-2.8-15.5,2-12c1.2,0.8,1.6,2.8,1.9,4.5c3.7,22,7.4,44.2,8.3,67
		C211.9,104,212.4,113.5,211.7,123z"/>
	<path fill="#99D3BE" d="M220.7,92.4c0.4-1.2,1.9-2.1,3.2-2.3c1.8-0.3,3.6,0.1,5.3-0.4c2-0.7,3.4-2.6,3.9-4.7s0.4-4.2,0.3-6.4
		c-1-16.6-1.3-33.3-1.1-49.9c0-1.9,0.8-4.6,2.7-4.4c1.7,0.2,2.2,2.3,2.3,4c0.8,16.5,0.9,32.9,0.5,49.4c-0.1,2.2-0.1,4.4,0.5,6.5
		c0.6,2.1,2.1,4,4.1,4.7c1.8,0.6,3.7,0.1,5.5,0.4c1.8,0.3,3.7,2,3.1,3.7c-0.8,2-3.7,1.5-5.9,1.7c-3,0.4-5.3,2.9-6.3,5.8
		c-1,2.8-0.9,5.9-0.8,8.9c0.5,11.9,0.9,23.8,1.4,35.7c0.1,2.2-0.3,5.4-3.3,4.9c-2-0.4-2-2.8-2-4.4c0-6.4,0-12.8,0-19.2
		c0-6,0-11.9,0-17.9c0-2.6,0-5.3-0.9-7.7c-0.9-2.4-2.9-4.6-5.4-5.1c-1.3-0.2-2.7,0-4-0.1c-1.3-0.1-2.8-0.9-3-2.2
		C220.5,93.1,220.6,92.8,220.7,92.4z"/>
</g>
</svg>
