<?xml version="1.0" encoding="utf-8"?>
<!-- Generator: Adobe Illustrator 19.1.0, SVG Export Plug-In . SVG Version: 6.00 Build 0)  -->
<!DOCTYPE svg PUBLIC "-//W3C//DTD SVG 1.1//EN" "http://www.w3.org/Graphics/SVG/1.1/DTD/svg11.dtd">
<svg version="1.1" id="Layer_1" xmlns="http://www.w3.org/2000/svg" xmlns:xlink="http://www.w3.org/1999/xlink" x="0px" y="0px"
	 viewBox="0 0 322 172" enable-background="new 0 0 322 172" xml:space="preserve">
<g>
	<path fill="#99D3BE" d="M84.2,71.5c1.3,7.2,0.9,14.3,2.2,21.5c1.2,6.8,2.8,13.1,2.4,20.2c-0.3,5.2,0.1,10.7-1,15.8
		c-1.4,7-7,21.9-15.3,19.4c-2.6-0.8-4.6-3.3-5.7-6.1c-2.8-7-2.6-17.6-2.3-25.1c0.3-5.6,0.5-11.2,0.7-16.8
		c0.3-10.9-0.2-21.6-0.9-32.5c-0.7-10.4-1.9-20.9-1.2-31.3c0.1-2,0.3-4.1,1-6c2-6.3,11.3-12.4,15.1-4.3c2.1,4.4,2.7,11.4,3.2,16.3
		L84.2,71L84.2,71.5z M78.8,71.2c0-0.4-0.1-0.9-0.1-1.3c-1.3-13-0.5-26.2-3.2-38.9c-0.2-0.9-0.4-1.8-1.1-2.3
		c-1.5-1.2-3.7,0.2-4.6,1.9c-1.8,3.1-1.7,6.9-1.6,10.4c0.8,27.2,1.5,54.4,2.3,81.5c0.1,4.7,0.3,9.3,0.7,14c0.1,1.5,0,4,1.3,5.1
		c1.3,1.1,3.4,0.4,4.5-0.5c1.2-1,2-2.4,2.6-3.8c4.7-10.4,5.1-22.2,3.9-33.6C82.5,92.8,80,82.1,78.8,71.2z"/>
	<path fill="#99D3BE" d="M44.5,51.9c-0.2-3.8-0.3-7.7-1.1-11.4c-0.2-0.8-0.2-1.7-0.4-2.5c-0.4-1.9-0.7-3.9-1.2-5.8
		c-0.7-2.7-2.2-4.3-4.7-4.6c-1.9-0.2-3.4,0.4-4.5,2.1c-0.9,1.5-1.7,3.2-2,5c-0.7,3.7-1.3,7.4-1.7,11.2c-0.5,4.9-0.8,9.9-0.8,14.9
		c0,4.4-0.4,8.9-0.6,13.3c-0.3,5.8-0.1,12-0.2,17.9c0,0.6,0,1.2-0.1,1.8c-0.1,1.4-0.2,2.9-0.3,4.3c-0.1,1.6,0,3.3-0.1,4.9
		c-0.1,2.6-0.2,5.2-0.2,7.8c0,0.4-0.1,0.8-0.1,1.2c0,2.9-0.1,5.9,0,8.8c0.1,4.4,0.2,8.8,0.6,13.2c0.1,1.9,0.8,3.7,1.3,5.5
		c0.3,1.1,1.2,1.3,2,1.6c0.4,0.2,0.9,0.2,1.4,0.3c1.8,0.2,3.5,0.5,5.3,0.6c2,0.2,3.3-1.3,4.5-2.8c0.5-0.7,0.9-1.5,1.2-2.3
		c0.8-2.2,1.6-4.4,2.3-6.6c0.7-2.1,0.9-4.2,0.9-6.5c-0.1-2.4,0-4.8-0.2-7.2c-0.2-3.2-0.5-6.5-0.8-9.7c-0.2-2.3-0.6-4.6-0.9-6.9
		c-0.3-2.1-0.6-4.1-0.8-6.2c-0.1-1-0.2-2.1-0.2-3.1c0-1,0.4-1.8,1.2-2.1c0.9-0.4,1.9-0.6,2.7,0.2c0.6,0.6,1.1,1.4,1.2,2.4
		c0.4,4.6,0.8,8.9,1.6,13.4c0.1,0.6,0.1,1.3,0.2,1.9c0.4,6.1,1,12.1,0.9,18.2c0,4.7-1.1,8.6-2.9,12.7c-2.6,5.9-4.4,10.1-10.6,10.3
		c-2.5,0.1-5,0-7.5-0.3c-1.4-0.2-2.9-0.5-4.2-1.4c-4-3.1-4-10.8-4.2-15.8c-0.1-3.4-0.3-6.8-0.3-10.2c0-3.6,0.1-7.3,0.3-10.9
		c0.5-7.6,0.5-15.3,0.7-22.9c0-2.3,0-4.6,0.1-6.9c0-2.4,0.1-4.9,0.2-7.3c0-0.3,0.1-0.6,0.1-0.9c-0.2-2.3,0-4.6,0.2-6.9
		c0.2-2.3,0.2-4.7,0.2-7c0.1-4.4,0.6-8.6,1.2-12.9c0.4-3,1-5.9,1.5-8.8c0.3-2,0.8-4,1.4-5.9c1.3-3.7,3.6-6.1,6.8-7.4
		c0.1,0,0.2-0.1,0.4-0.1c2-0.1,4.1-0.1,6.1,0.7c2.1,0.8,3.4,2.5,4.1,5c0.1,0.3,0.2,0.7,0.3,1c1.8,4,2.6,8.2,2.8,12.6
		c0.1,1.1,0.3,2.2,0.4,3.2c0.4,3.4,0.9,6.9-0.3,10.2c-0.2,0.7-0.6,1.4-0.9,1.9c-0.6,0.9-1.6,0.8-1.9-0.3c-0.2-0.7-0.3-1.6-0.4-2.3
		C44.4,53.4,44.5,52.6,44.5,51.9z"/>
	<path fill="#99D3BE" d="M287.6,60.8c1.3-10.1-1.8-23.1-2.9-30.9c-0.4-2.8,1.1-11.1,3.9-6.2c3.2,5.7,2.7,18.2,3.5,25.1
		c1.1,9.5,2.2,19,3.2,28.5c0.9,8.3,1.7,16.5,2.2,24.9c0.5,7.7,2,17.4,0.9,25.1c0,7.2-1.4,18.2-8,20.2c-2.4,0.7-4.8-0.1-7-1.4
		c-6.3-3.7-10.9-11.7-11.9-20.5c-1.1-9.7,1.9-19.8,0.7-29.6c-0.2-2.1-0.7-4.3-0.2-6.3c1.4-5.9,5.3-2.4,5,2.2
		c-0.6,9.6-1.9,19.7-1.1,29.3c0.6,7.5,3.3,18.1,9.8,19.9c5.1,1.4,7.7-3.7,7.8-9.5c0.2-16.5-0.7-32.8-1.5-49.1
		c-0.2-3.5-0.6-9.6-4.2-9.3c-4.3,0.4-6.6,7.2-11.7,5c-3.6-1.6-5.2-7-6-11.8c-0.8-4.6-4.1-45.9,1.3-44.8c3.7,0.8,1.2,12.4,1,15.3
		c-0.5,9.3-1.2,19.1,1,28c1.3,5.1,6,11,10.2,6.1C285.8,68.2,287,64.7,287.6,60.8z"/>
	<path fill="#99D3BE" d="M251.2,130.5c1.9-9.3-2.8-21-1.9-29.9c0.2-2.3,2.5-10,4.5-4.3c1.3,3.5,0,10.3,0.4,14.3
		c0.6,5.4,1.6,10.7,1.3,16.3c-0.5,7.2-4.9,18.5-10.8,20.8c-6.3,2.5-9.2-6.5-10.1-12.6c-4-28,3.5-57.3,2.2-85.8
		c-0.3-7.3-2.2-22,4.9-25.7c2.6-1.4,5.6,0.1,7.5,2.6s2.8,5.9,3.6,9.2c3.1,13,4.8,26.7,4.9,40.4c0,0.9,0,1.9-0.6,2.5
		c-0.4,0.5-1,0.6-1.6,0.6c-4.5,0.4-9,0.7-13.5,1.1c-0.5,0-1,0.1-1.4,0.5c-0.4,0.4-0.4,1.1-0.5,1.7c-1,10.4-2,20.7-2.2,31.2
		c-0.1,5.2-1.4,26,3.4,28.1c2.1,0.9,3.8,0.2,5.2-2.2c0.3-0.5,0.6-1,1-1.5C249.5,135.6,250.7,133.1,251.2,130.5z M245.3,74.4
		c2.1,0.7,2.1,0.7,3.5,0.3c1.1-0.4,2.2-0.7,3.3-1.2c0.8-0.3,1.2-1.1,1.1-2.3c-0.2-2.2-0.3-4.5-0.7-6.7c-0.7-3.6-0.6-7.4-0.9-11.1
		c-0.3-3.4-0.6-6.7-1.5-9.9c-0.9-2.8-1.6-5.7-2.3-8.6c-0.4-1.7-1.2-3.2-2-4.6c-0.4-0.7-1-0.9-1.7-0.8c-1.4,0.2-2.3,1-2.7,3.1
		c-0.8,3.6-1.2,7.2-0.7,10.9c0.1,1.1,0.2,2.3,0.2,3.4c0.1,2.2,0.1,4.3,0.2,6.5c0.1,2.2,0.3,4.4,0.2,6.6c-0.1,2,0,4,0.2,6
		c0.1,0.5,0,1-0.1,1.4c-0.1,1.5-0.2,2.9-0.2,4.4c0,1.5,0.5,2,1.7,2.2C243.8,74.1,244.6,74.3,245.3,74.4z"/>
	<path fill="#99D3BE" d="M126.9,119.8c-0.9,13.1-3.8,25.9-12.1,28.1c-7.3,1.9-10.5-6.4-11.9-14.7c-0.8-4.7-0.8-9.4-1.2-14.1
		c-2.5-30.6-0.7-61.5-2.3-92.1c-0.1-1.8,0.8-3.5,1.9-4c3.9-1.6,3.4,16.6,3.6,20c0.4,10.6-0.2,21.2,0.1,31.8
		c0.4,12,0.1,24.3,0.8,36.2c0.5,7.3,0.2,14.8,1.8,21.8c0.6,2.7,1.8,7.7,3.8,8.6c2.2,1,5.2-1.9,6.2-4.4c3.1-7.4,4.2-15.6,4.2-24.1
		c0.1-17.8-1.2-37.2-3.6-54.9c-1-7.6-2.7-15-3.6-22.6c-0.3-2.6-2.8-15.5,2-12c1.2,0.8,1.6,2.8,1.9,4.5c3.7,22,7.4,44.2,8.3,67
		C127.1,100.8,127.5,110.4,126.9,119.8z"/>
	<path fill="#99D3BE" d="M222,79.8c-1,9.2-2.1,18.5-2.4,27.8c-0.3,8.5,0.1,17.1,1.1,25.4c0.2,2,0.8,9.8,0.3,11.6
		c-0.6,2.1-2.1,4.2-3.4,2.3c-0.8-1.2-1.7-9.3-1.8-10.9c-0.7-15.3-1.2-29.7,0.9-45.1c1.5-12.6,3.3-25.3,2.7-38
		c-0.3-6.2-1.1-12-3.4-17.3c-1.1-2.4-4.5-11.3-7-5.6c-0.7,1.5-0.7,3.4-0.7,5.1c0,20.4-0.6,41,0.2,61.3c0.6,16-0.6,32.5-1,48.5
		c-0.1,3.4-2.5,5.1-4.1,2c-0.8-1.6-0.7-3.7-0.7-5.7c1-28.6,1.9-57.2,0.7-85.6c-0.3-6.9-1.5-40.3,9.8-33.6c5.7,3.4,8.9,17.2,9.6,25
		C224,58,223.2,68.9,222,79.8z"/>
	<path fill="#99D3BE" d="M142.5,34.9c-0.6-2.7,5.7-8.7,6.9-9.4c3-1.9,7-2.1,9.2,1.8c4.1,7.4,4.4,15,3.3,24.1
		c-0.2,1.3-0.3,2.8-0.9,3.9c-1.5,2.9-4.8,1.2-4.5-2.2c0.1-0.8,0.3-1.6,0.4-2.4c0.4-2.8,0.7-5.6,1.1-8.5c0.9-8-4.7-15.5-9.4-7.6
		c-3.8,6.5-3.9,14.7-3.6,22.4c1.2,28.7-0.4,57.9,0.2,86.7c0,1.5,0,3.1-0.8,4.1c-1,1.2-2.7,0.5-3.5-1.1c-0.7-1.5-0.7-3.5-0.7-5.3
		c0-11,0.7-22.2,0.4-33.2c-0.9-27.4-1.5-54.7-3.1-82c-0.1-1.4,0-3.1,0.9-3.8c0.5-0.4,1.1-0.3,1.6,0c1.6,0.9,2,3.6,2.1,5.9
		c0,2.3-0.2,4.9,0.7,6.8C142.6,35.1,142.6,35,142.5,34.9z"/>
	<path fill="#99D3BE" d="M162.8,89.4c0.4-1.2,1.9-2.1,3.2-2.3c1.8-0.3,3.6,0.1,5.3-0.4c2-0.7,3.4-2.6,3.9-4.7
		c0.6-2.1,0.4-4.2,0.3-6.4c-1-16.6-1.3-33.3-1.1-49.9c0-1.9,0.8-4.6,2.7-4.4c1.7,0.2,2.2,2.3,2.3,4c0.8,16.5,0.9,32.9,0.5,49.4
		c-0.1,2.2-0.1,4.4,0.5,6.5c0.6,2.1,2.1,4,4.1,4.7c1.8,0.6,3.7,0.1,5.5,0.4c1.8,0.3,3.7,2,3.1,3.7c-0.8,2-3.7,1.5-5.9,1.7
		c-3,0.4-5.3,2.9-6.3,5.8c-1,2.8-0.9,5.9-0.8,8.9c0.5,11.9,0.9,23.8,1.4,35.7c0.1,2.2-0.3,5.4-3.3,4.9c-2-0.4-2-2.8-2-4.4
		c0-6.4,0-12.8,0-19.2c0-6,0-11.9,0-17.9c0-2.6,0-5.3-0.9-7.7c-0.9-2.4-2.9-4.6-5.4-5.1c-1.3-0.2-2.7,0-4-0.1s-2.8-0.9-3-2.2
		C162.6,90.1,162.7,89.8,162.8,89.4z"/>
</g>
</svg>
