<?xml version="1.0" encoding="utf-8"?>
<!-- Generator: Adobe Illustrator 19.1.0, SVG Export Plug-In . SVG Version: 6.00 Build 0)  -->
<!DOCTYPE svg PUBLIC "-//W3C//DTD SVG 1.1//EN" "http://www.w3.org/Graphics/SVG/1.1/DTD/svg11.dtd">
<svg version="1.1" id="Layer_1" xmlns="http://www.w3.org/2000/svg" xmlns:xlink="http://www.w3.org/1999/xlink" x="0px" y="0px"
	 viewBox="0 0 322 172" enable-background="new 0 0 322 172" xml:space="preserve">
<g>
	<path fill="#99D3BE" d="M53.8,54.2c-0.2-3.8-0.3-7.7-1.1-11.4c-0.2-0.8-0.2-1.7-0.4-2.5c-0.4-1.9-0.7-3.9-1.2-5.8
		c-0.7-2.7-2.2-4.3-4.7-4.6c-1.9-0.2-3.4,0.4-4.5,2.1c-0.9,1.5-1.7,3.2-2,5c-0.7,3.7-1.3,7.4-1.7,11.2C37.8,53,37.5,58,37.5,63
		c0,4.4-0.4,8.9-0.6,13.3c-0.3,5.8-0.1,12-0.2,17.9c0,0.6,0,1.2-0.1,1.8c-0.1,1.4-0.2,2.9-0.3,4.3c-0.1,1.6,0,3.3-0.1,4.9
		c-0.1,2.6-0.2,5.2-0.2,7.8c0,0.4-0.1,0.8-0.1,1.2c0,2.9-0.1,5.9,0,8.8c0.1,4.4,0.2,8.8,0.6,13.2c0.1,1.9,0.8,3.7,1.3,5.5
		c0.3,1.1,1.2,1.3,2,1.6c0.4,0.2,0.9,0.2,1.4,0.3c1.8,0.2,3.5,0.5,5.3,0.6c2,0.2,3.3-1.3,4.5-2.8c0.5-0.7,0.9-1.5,1.2-2.3
		c0.8-2.2,1.6-4.4,2.3-6.6c0.7-2.1,0.9-4.2,0.9-6.5c-0.1-2.4,0-4.8-0.2-7.2c-0.2-3.2-0.5-6.5-0.8-9.7c-0.2-2.3-0.6-4.6-0.9-6.9
		c-0.3-2.1-0.6-4.1-0.8-6.2c-0.1-1-0.2-2.1-0.2-3.1c0-1,0.4-1.8,1.2-2.1c0.9-0.4,1.9-0.6,2.7,0.2c0.6,0.6,1.1,1.4,1.2,2.4
		c0.4,4.6,0.8,8.9,1.6,13.4c0.1,0.6,0.1,1.3,0.2,1.9c0.4,6.1,1,12.1,0.9,18.2c0,4.7-1.1,8.6-2.9,12.7c-2.6,5.9-4.4,10.1-10.6,10.3
		c-2.5,0.1-5,0-7.5-0.3c-1.4-0.2-2.9-0.5-4.2-1.4c-4-3.1-4-10.8-4.2-15.8c-0.1-3.4-0.3-6.8-0.3-10.2c0-3.6,0.1-7.3,0.3-10.9
		c0.5-7.6,0.5-15.3,0.7-22.9c0-2.3,0-4.6,0.1-6.9c0-2.4,0.1-4.9,0.2-7.3c0-0.3,0.1-0.6,0.1-0.9c-0.2-2.3,0-4.6,0.2-6.9
		c0.2-2.3,0.2-4.7,0.2-7c0.1-4.4,0.6-8.6,1.2-12.9c0.4-3,1-5.9,1.5-8.8c0.3-2,0.8-4,1.4-5.9c1.3-3.7,3.6-6.1,6.8-7.4
		c0.1,0,0.2-0.1,0.4-0.1c2-0.1,4.1-0.1,6.1,0.7c2.1,0.8,3.4,2.5,4.1,5c0.1,0.3,0.2,0.7,0.3,1c1.8,4,2.6,8.2,2.8,12.6
		c0.1,1.1,0.3,2.2,0.4,3.2c0.4,3.4,0.9,6.9-0.3,10.2c-0.2,0.7-0.6,1.4-0.9,1.9c-0.6,0.9-1.6,0.8-1.9-0.3c-0.2-0.7-0.3-1.6-0.4-2.3
		C53.7,55.7,53.8,54.9,53.8,54.2z"/>
	<path fill="#99D3BE" d="M92,73c1.3,7.2,0.9,14.3,2.2,21.5c1.2,6.8,2.8,13.1,2.4,20.2c-0.3,5.2,0.1,10.7-1,15.8
		c-1.4,7-7,21.9-15.3,19.4c-2.6-0.8-4.6-3.3-5.7-6.1c-2.8-7-2.6-17.6-2.3-25.1c0.3-5.6,0.5-11.2,0.7-16.8
		c0.3-10.9-0.2-21.6-0.9-32.5c-0.7-10.4-1.9-20.9-1.2-31.3c0.1-2,0.3-4.1,1-6c2-6.3,11.3-12.4,15.1-4.3c2.1,4.4,2.7,11.4,3.2,16.3
		l1.7,28.5L92,73z M86.6,72.7c0-0.4-0.1-0.9-0.1-1.3c-1.3-13-0.5-26.2-3.2-38.9c-0.2-0.9-0.4-1.8-1.1-2.3c-1.5-1.2-3.7,0.2-4.6,1.9
		c-1.8,3.1-1.7,6.9-1.6,10.4c0.8,27.2,1.5,54.4,2.3,81.5c0.1,4.7,0.3,9.3,0.7,14c0.1,1.5,0,4,1.3,5.1c1.3,1.1,3.4,0.4,4.5-0.5
		c1.2-1,2-2.4,2.6-3.8c4.7-10.4,5.1-22.2,3.9-33.6C90.3,94.3,87.8,83.6,86.6,72.7z"/>
	<path fill="#99D3BE" d="M129.9,82.4c-1,9.2-2.1,18.5-2.4,27.8c-0.3,8.5,0.1,17.1,1.1,25.4c0.2,2,0.8,9.8,0.3,11.6
		c-0.6,2.1-2.1,4.2-3.4,2.3c-0.8-1.2-1.7-9.3-1.8-10.9c-0.7-15.3-1.2-29.7,0.9-45.1c1.5-12.6,3.3-25.3,2.7-38
		c-0.3-6.2-1.1-12-3.4-17.3c-1.1-2.4-4.5-11.3-7-5.6c-0.7,1.5-0.7,3.4-0.7,5.1c0,20.4-0.6,41,0.2,61.3c0.6,16-0.6,32.5-1,48.5
		c-0.1,3.4-2.5,5.1-4.1,2c-0.8-1.6-0.7-3.7-0.7-5.7c1-28.6,1.9-57.2,0.7-85.6c-0.3-6.9-1.5-40.3,9.8-33.6c5.7,3.4,8.9,17.2,9.6,25
		C131.9,60.5,131.1,71.4,129.9,82.4z"/>
	<path fill="#99D3BE" d="M141.4,94.3c0.4-1.2,1.9-2.1,3.2-2.3c1.8-0.3,3.6,0.1,5.3-0.4c2-0.7,3.4-2.6,3.9-4.7
		c0.6-2.1,0.4-4.2,0.3-6.4c-1-16.6-1.3-33.3-1.1-49.9c0-1.9,0.8-4.6,2.7-4.4c1.7,0.2,2.2,2.3,2.3,4c0.8,16.5,0.9,32.9,0.5,49.4
		c-0.1,2.2-0.1,4.4,0.5,6.5c0.6,2.1,2.1,4,4.1,4.7c1.8,0.6,3.7,0.1,5.5,0.4c1.8,0.3,3.7,2,3.1,3.7c-0.8,2-3.7,1.5-5.9,1.7
		c-3,0.4-5.3,2.9-6.3,5.8c-1,2.8-0.9,5.9-0.8,8.9c0.5,11.9,0.9,23.8,1.4,35.7c0.1,2.2-0.3,5.4-3.3,4.9c-2-0.4-2-2.8-2-4.4
		c0-6.4,0-12.8,0-19.2c0-6,0-11.9,0-17.9c0-2.6,0-5.3-0.9-7.7s-2.9-4.6-5.4-5.1c-1.3-0.2-2.7,0-4-0.1s-2.8-0.9-3-2.2
		C141.3,95,141.3,94.6,141.4,94.3z"/>
	<path fill="#99D3BE" d="M255.8,54.5c-0.2-3.8-0.3-7.7-1.1-11.4c-0.2-0.8-0.2-1.7-0.4-2.5c-0.4-1.9-0.7-3.9-1.2-5.8
		c-0.7-2.7-2.2-4.3-4.7-4.6c-1.9-0.2-3.4,0.4-4.5,2.1c-0.9,1.5-1.7,3.2-2,5c-0.7,3.7-1.3,7.4-1.7,11.2c-0.5,4.9-0.8,9.9-0.8,14.9
		c0,4.4-0.4,8.9-0.6,13.3c-0.3,5.8-0.1,12-0.2,17.9c0,0.6,0,1.2-0.1,1.8c-0.1,1.4-0.2,2.9-0.3,4.3c-0.1,1.6,0,3.3-0.1,4.9
		c-0.1,2.6-0.2,5.2-0.2,7.8c0,0.4-0.1,0.8-0.1,1.2c0,2.9-0.1,5.9,0,8.8c0.1,4.4,0.2,8.8,0.6,13.2c0.1,1.9,0.8,3.7,1.3,5.5
		c0.3,1.1,1.2,1.3,2,1.6c0.4,0.2,0.9,0.2,1.4,0.3c1.8,0.2,3.5,0.5,5.3,0.6c2,0.2,3.3-1.3,4.5-2.8c0.5-0.7,0.9-1.5,1.2-2.3
		c0.8-2.2,1.6-4.4,2.3-6.6c0.7-2.1,0.9-4.2,0.9-6.5c-0.1-2.4,0-4.8-0.2-7.2c-0.2-3.2-0.5-6.5-0.8-9.7c-0.2-2.3-0.6-4.6-0.9-6.9
		c-0.3-2.1-0.6-4.1-0.8-6.2c-0.1-1-0.2-2.1-0.2-3.1c0-1,0.4-1.8,1.2-2.1c0.9-0.4,1.9-0.6,2.7,0.2c0.6,0.6,1.1,1.4,1.2,2.4
		c0.4,4.6,0.8,8.9,1.6,13.4c0.1,0.6,0.1,1.3,0.2,1.9c0.4,6.1,1,12.1,0.9,18.2c0,4.7-1.1,8.6-2.9,12.7c-2.6,5.9-4.4,10.1-10.6,10.3
		c-2.5,0.1-5,0-7.5-0.3c-1.4-0.2-2.9-0.5-4.2-1.4c-4-3.1-4-10.8-4.2-15.8c-0.1-3.4-0.3-6.8-0.3-10.2c0-3.6,0.1-7.3,0.3-10.9
		c0.5-7.6,0.5-15.3,0.7-22.9c0-2.3,0-4.6,0.1-6.9c0-2.4,0.1-4.9,0.2-7.3c0-0.3,0.1-0.6,0.1-0.9c-0.2-2.3,0-4.6,0.2-6.9
		c0.2-2.3,0.2-4.7,0.2-7c0.1-4.4,0.6-8.6,1.2-12.9c0.4-3,1-5.9,1.5-8.8c0.3-2,0.8-4,1.4-5.9c1.3-3.7,3.6-6.1,6.8-7.4
		c0.1,0,0.2-0.1,0.4-0.1c2-0.1,4.1-0.1,6.1,0.7c2.1,0.8,3.4,2.5,4.1,5c0.1,0.3,0.2,0.7,0.3,1c1.8,4,2.6,8.2,2.8,12.6
		c0.1,1.1,0.3,2.2,0.4,3.2c0.4,3.4,0.9,6.9-0.3,10.2c-0.2,0.7-0.6,1.4-0.9,1.9c-0.6,0.9-1.6,0.8-1.9-0.3c-0.2-0.7-0.3-1.6-0.4-2.3
		C255.7,56,255.8,55.2,255.8,54.5z"/>
	<path fill="#99D3BE" d="M270.4,93.3c0.4-1.2,1.9-2.1,3.2-2.3c1.8-0.3,3.6,0.1,5.3-0.4c2-0.7,3.4-2.6,3.9-4.7
		c0.6-2.1,0.4-4.2,0.3-6.4c-1-16.6-1.3-33.3-1.1-49.9c0-1.9,0.8-4.6,2.7-4.4c1.7,0.2,2.2,2.3,2.3,4c0.8,16.5,0.9,32.9,0.5,49.4
		c-0.1,2.2-0.1,4.4,0.5,6.5s2.1,4,4.1,4.7c1.8,0.6,3.7,0.1,5.5,0.4c1.8,0.3,3.7,2,3.1,3.7c-0.8,2-3.7,1.5-5.9,1.7
		c-3,0.4-5.3,2.9-6.3,5.8c-1,2.8-0.9,5.9-0.8,8.9c0.5,11.9,0.9,23.8,1.4,35.7c0.1,2.2-0.3,5.4-3.3,4.9c-2-0.4-2-2.8-2-4.4
		c0-6.4,0-12.8,0-19.2c0-6,0-11.9,0-17.9c0-2.6,0-5.3-0.9-7.7c-0.9-2.4-2.9-4.6-5.4-5.1c-1.3-0.2-2.7,0-4-0.1
		c-1.3-0.1-2.8-0.9-3-2.2C270.2,94,270.3,93.6,270.4,93.3z"/>
	<g>
		<path fill="#99D3BE" d="M201.6,136.7c0.2,1.8,0.6,3.5,1.3,5.1c1.7,3.9,5.7,8.5,10.1,9.5c4.7,1,9.3-4.2,10.7-8.4
			c0.4-1.2,0.4-2.9-0.8-3.3c-0.8-0.3-1.6,0.2-2.1,0.8s-0.8,1.4-1.3,2c-1.9,2.3-5.8,1.9-8.1-0.1c-2.2-2-3.2-5-4-7.9
			c-0.8-2.9-1.6-5.9-3.7-8.1C202,129.4,201.3,133.1,201.6,136.7z"/>
		<path fill="#99D3BE" d="M202.8,74.5c1.3,7.4,0.9,14.6,2.3,22c1.3,6.9,2.9,13.4,2.4,20.6c-0.3,5.4,0.1,10.9-1,16.2
			c-1.5,7.2-7.1,22.4-15.6,19.8c-2.7-0.8-4.7-3.4-5.9-6.3c-2.8-7.2-2.7-18-2.3-25.7c0.3-5.7,0.5-11.5,0.7-17.2
			c0.3-11.2-0.2-22.1-0.9-33.2c-0.7-10.6-2-21.4-1.2-32.1c0.2-2.1,0.4-4.2,1-6.2c2-6.5,11.6-12.7,15.5-4.4
			c2.1,4.5,2.8,11.6,3.3,16.7l1.7,29.1L202.8,74.5z M197.3,74.1c0-0.4-0.1-0.9-0.1-1.3c-1.3-13.3-0.5-26.8-3.2-39.8
			c-0.2-0.9-0.4-1.8-1.1-2.4c-1.5-1.2-3.7,0.3-4.7,1.9c-1.8,3.2-1.7,7-1.6,10.7c0.8,27.8,1.6,55.6,2.4,83.4
			c0.1,4.8,0.3,9.6,0.7,14.3c0.1,1.5,0,4.1,1.3,5.2c1.3,1.1,3.5,0.4,4.6-0.5c1.3-1,2-2.5,2.7-3.9c4.8-10.6,5.2-22.7,4-34.3
			C201,96.3,198.5,85.3,197.3,74.1z"/>
	</g>
</g>
</svg>
