<?xml version="1.0" encoding="utf-8"?>
<!-- Generator: Adobe Illustrator 19.1.0, SVG Export Plug-In . SVG Version: 6.00 Build 0)  -->
<!DOCTYPE svg PUBLIC "-//W3C//DTD SVG 1.1//EN" "http://www.w3.org/Graphics/SVG/1.1/DTD/svg11.dtd">
<svg version="1.1" id="Layer_1" xmlns="http://www.w3.org/2000/svg" xmlns:xlink="http://www.w3.org/1999/xlink" x="0px" y="0px"
	 viewBox="0 0 351.3 195.7" enable-background="new 0 0 351.3 195.7" xml:space="preserve">
<g>
	<path fill="#FFFFFF" d="M96.7,83.2c1.4,6.1,1,12,2.4,18.1c1.3,5.7,3,11,2.6,16.9c-0.4,4.4,0.1,9-1,13.3
		c-1.6,5.9-7.5,18.4-16.5,16.3c-2.8-0.7-5-2.8-6.2-5.1c-3-5.9-2.9-14.8-2.5-21.1c0.3-4.7,0.6-9.4,0.7-14.1c0.3-9.2-0.2-18.1-1-27.3
		c-0.8-8.7-2.1-17.6-1.3-26.3c0.2-1.7,0.4-3.4,1-5.1c2.1-5.3,12.3-10.4,16.4-3.6c2.2,3.7,2.9,9.5,3.5,13.7 M88.6,55.1
		c-0.1-2.2-1.2-4.2-1.5-6.4c-0.5-3.7-5.5-1.2-6.5,0.9c-0.9,1.8-1.4,3.7-1.5,5.7c-0.9,14.5,2.8,29,2.6,43.6
		c-0.1,6.5-0.4,12.9-0.5,19.4c-0.1,6.4,0.5,12.6,0.9,18.9c0.1,2.3,1.1,5.7,4.4,5.5c4.4-0.3,7.5-8.1,8.6-11.3
		c1.7-4.9,2-10.1,1.6-15.1c-1-10.9-3.5-21.7-5.8-32.4"/>
	<path fill="#FFFFFF" d="M53.8,66.7c-0.2-3.2-0.3-6.5-1.1-9.6c-0.2-0.7-0.2-1.4-0.4-2.1c-0.4-1.6-0.8-3.3-1.3-4.9
		c-0.8-2.2-2.3-3.6-5.1-3.9C43.7,46,42,46.6,40.9,48c-1,1.2-1.8,2.7-2.2,4.2c-0.8,3.1-1.4,6.3-1.8,9.4c-0.5,4.2-0.9,8.3-0.9,12.5
		c0,3.7-0.4,7.5-0.6,11.2c-0.3,4.9-0.1,10-0.2,15c0,0.5,0,1-0.1,1.5c-0.1,1.2-0.2,2.4-0.3,3.6c-0.1,1.4,0,2.8-0.1,4.1
		c-0.1,2.2-0.2,4.4-0.3,6.5c0,0.3-0.1,0.7-0.1,1c0,2.5-0.1,5,0,7.4c0.1,3.7,0.3,7.4,0.6,11c0.2,1.6,0.9,3.1,1.4,4.6
		c0.3,0.9,1.3,1.1,2.2,1.4c0.5,0.2,1,0.2,1.5,0.2c1.9,0.2,3.8,0.4,5.8,0.5c2.2,0.2,3.6-1.1,4.9-2.4c0.5-0.6,0.9-1.2,1.3-1.9
		c0.9-1.8,1.7-3.7,2.5-5.6c0.7-1.7,1-3.6,0.9-5.4c-0.1-2,0-4-0.2-6c-0.2-2.7-0.5-5.4-0.9-8.1c-0.2-1.9-0.6-3.9-0.9-5.8
		c-0.3-1.7-0.6-3.5-0.9-5.2c-0.1-0.9-0.2-1.8-0.2-2.6c0-0.8,0.4-1.5,1.3-1.8c0.9-0.3,2-0.5,2.9,0.2c0.7,0.5,1.2,1.2,1.3,2
		c0.5,3.9,0.9,7.5,1.8,11.3c0.1,0.5,0.1,1.1,0.2,1.6c0.4,5.1,1,10.2,1,15.3c0,4-1.2,7.2-3.2,10.7c-2.8,4.9-4.8,8.4-11.5,8.7
		c-2.7,0.1-5.4,0-8.1-0.3c-1.6-0.2-3.2-0.4-4.5-1.2c-4.3-2.6-4.3-9.1-4.6-13.2c-0.1-2.8-0.3-5.7-0.3-8.5c0-3.1,0.1-6.1,0.3-9.2
		c0.5-6.4,0.6-12.8,0.7-19.2c0-1.9,0-3.8,0.1-5.8c0.1-2.1,0.2-4.1,0.2-6.2c0-0.3,0.1-0.5,0.1-0.8c-0.2-1.9,0-3.8,0.2-5.8
		c0.2-2,0.2-3.9,0.3-5.9c0.1-3.7,0.7-7.3,1.3-10.9c0.4-2.5,1.1-4.9,1.6-7.4c0.4-1.7,0.8-3.3,1.6-4.9c1.4-3.1,3.9-5.2,7.3-6.2
		c0.1,0,0.3-0.1,0.4-0.1c2.2-0.1,4.4-0.1,6.6,0.6c2.2,0.7,3.7,2.1,4.4,4.2c0.1,0.3,0.2,0.6,0.3,0.8c1.9,3.3,2.8,6.9,3,10.6
		c0.1,0.9,0.4,1.8,0.5,2.7c0.4,2.9,0.9,5.8-0.3,8.6c-0.3,0.6-0.6,1.1-1,1.6c-0.6,0.8-1.7,0.6-2.1-0.3c-0.3-0.6-0.3-1.3-0.4-2
		C53.7,68,53.7,67.4,53.8,66.7z"/>
	<path fill="#FFFFFF" d="M316.8,74.2c1.5-8.5-1.9-19.4-3.1-26c-0.4-2.3,1.2-9.3,4.2-5.2c3.5,4.8,2.9,15.3,3.8,21.1
		c1.2,8,2.4,16,3.4,24c0.9,6.9,1.8,13.9,2.4,20.9c0.6,6.4,2.2,14.6,0.9,21.1c0,6-1.5,15.3-8.6,17c-2.5,0.6-5.2-0.1-7.5-1.1
		c-6.8-3.1-11.8-9.8-12.9-17.3c-1.2-8.2,2-16.7,0.8-24.8c-0.3-1.8-0.7-3.6-0.2-5.3c1.5-4.9,5.7-2,5.4,1.9
		c-0.6,8.1-2.1,16.5-1.2,24.6c0.7,6.3,3.5,15.2,10.6,16.7c5.5,1.2,8.3-3.1,8.4-8c0.2-13.8-0.7-27.5-1.7-41.3c-0.2-3-0.7-8.1-4.6-7.8
		c-4.6,0.4-7.1,6-12.7,4.2c-3.9-1.3-5.6-5.9-6.4-9.9c-0.8-3.9-4.4-38.6,1.4-37.6c4,0.6,1.3,10.4,1.1,12.8
		c-0.5,7.8-1.3,16.1,1.1,23.5c1.4,4.3,6.5,9.2,11,5.2C314.9,80.5,316.2,77.5,316.8,74.2z"/>
	<path fill="#FFFFFF" d="M277.4,132.7c2.1-7.8-3-17.6-2-25.1c0.3-1.9,2.7-8.4,4.8-3.6c1.4,3,0,8.7,0.5,12.1c0.6,4.5,1.8,9,1.4,13.7
		c-0.5,6-5.3,15.5-11.7,17.5c-6.8,2.1-10-5.5-10.9-10.6c-4.4-23.5,3.8-48.1,2.4-72.1c-0.4-6.1-2.4-18.4,5.3-21.6
		c2.8-1.1,6.1,0.1,8.1,2.2c2,2.1,3,5,3.9,7.8c3.4,10.9,5.2,22.4,5.3,33.9c0,0.7,0,1.6-0.6,2.1c-0.5,0.4-1.1,0.5-1.7,0.5
		c-4.9,0.3-9.8,0.6-14.7,0.9c-0.5,0-1.1,0.1-1.5,0.4c-0.4,0.4-0.5,0.9-0.5,1.4c-1.1,8.7-2.1,17.4-2.3,26.2
		c-0.1,4.4-1.5,21.8,3.6,23.6c2.3,0.8,4.2,0.2,5.6-1.9c0.3-0.4,0.7-0.9,1.1-1.2C275.6,137.1,276.8,135,277.4,132.7z M271.1,85.7
		c2.3,0.6,2.3,0.6,3.8,0.2c1.2-0.3,2.4-0.6,3.6-1c0.9-0.3,1.3-0.9,1.2-1.9c-0.2-1.9-0.3-3.8-0.8-5.6c-0.7-3.1-0.6-6.2-1-9.3
		c-0.3-2.8-0.6-5.7-1.6-8.3c-0.9-2.4-1.8-4.8-2.5-7.3c-0.5-1.5-1.3-2.7-2.2-3.9c-0.4-0.6-1.1-0.8-1.8-0.7c-1.6,0.2-2.5,0.9-2.9,2.6
		c-0.9,3-1.3,6.1-0.8,9.2c0.1,0.9,0.2,1.9,0.3,2.8c0.1,1.8,0.1,3.6,0.2,5.4c0.1,1.9,0.4,3.7,0.2,5.5c-0.1,1.7,0,3.3,0.2,5
		c0.1,0.4,0,0.8-0.1,1.2c-0.1,1.2-0.2,2.4-0.2,3.7c0,1.3,0.6,1.7,1.9,1.9C269.4,85.4,270.2,85.5,271.1,85.7z"/>
	<path fill="#FFFFFF" d="M142.9,123.8c-1,11-4.1,21.8-13.1,23.6c-7.9,1.6-11.4-5.3-12.9-12.4c-0.9-3.9-0.8-7.9-1.3-11.9
		c-2.7-25.7-0.8-51.6-2.5-77.4c-0.1-1.5,0.8-3,2.1-3.4c4.2-1.4,3.7,14,3.8,16.8c0.5,8.9-0.2,17.8,0.2,26.7
		c0.4,10.1,0.1,20.4,0.9,30.4c0.5,6.1,0.2,12.5,2,18.3c0.7,2.3,1.9,6.5,4.2,7.3c2.3,0.8,5.6-1.6,6.7-3.7c3.3-6.2,4.6-13.1,4.6-20.2
		c0.1-14.9-1.3-31.3-3.9-46.1c-1.1-6.4-2.9-12.6-3.9-19c-0.3-2.2-3-13,2.2-10.1c1.2,0.7,1.7,2.3,2,3.8c4,18.5,8,37.2,8.9,56.3
		C143.2,107.8,143.6,115.9,142.9,123.8z"/>
	<path fill="#FFFFFF" d="M244,90.2c-1,7.8-2.3,15.6-2.6,23.3c-0.3,7.2,0.1,14.3,1.2,21.3c0.3,1.6,0.9,8.2,0.3,9.8
		c-0.7,1.8-2.2,3.6-3.6,1.9c-0.8-1-1.8-7.8-1.9-9.1c-0.8-12.9-1.3-24.9,1-37.8c1.6-10.6,3.6-21.3,3-31.9c-0.3-5.2-1.2-10.1-3.6-14.5
		c-1.1-2-4.9-9.5-7.6-4.7c-0.7,1.3-0.7,2.8-0.8,4.3c0,17.1-0.7,34.4,0.2,51.5c0.7,13.4-0.6,27.3-1,40.7c-0.1,2.8-2.7,4.3-4.4,1.6
		c-0.9-1.4-0.8-3.1-0.7-4.8c1-24,2-48,0.7-71.9c-0.3-5.8-1.6-33.8,10.6-28.2c6.2,2.8,9.6,14.5,10.4,21C246.1,71.8,245.2,81,244,90.2
		z"/>
	<path fill="#FFFFFF" d="M159.8,52.4c-0.6-2.3,6.2-7.3,7.4-7.9c3.3-1.6,7.6-1.7,9.9,1.5c4.5,6.2,4.7,12.6,3.6,20.2
		c-0.2,1.1-0.3,2.3-1,3.3c-1.6,2.4-5.2,1-4.8-1.8c0.1-0.7,0.3-1.3,0.4-2c0.4-2.4,0.8-4.7,1.1-7.1c1-6.7-5.1-13-10.2-6.3
		c-4.2,5.5-4.2,12.3-3.9,18.8c1.3,24.1-0.5,48.6,0.2,72.8c0,1.2,0,2.6-0.9,3.5c-1.1,1-3,0.4-3.8-0.9c-0.8-1.3-0.8-2.9-0.8-4.5
		c0-9.3,0.8-18.6,0.4-27.9c-1-23-1.7-45.9-3.4-68.8c-0.1-1.2,0-2.6,0.9-3.2c0.5-0.3,1.2-0.3,1.7,0c1.7,0.8,2.2,3,2.2,5
		c0,2-0.2,4.1,0.8,5.7C159.9,52.6,159.8,52.5,159.8,52.4z"/>
	<path fill="#FFFFFF" d="M195.2,108c0.1,11.5-0.4,23-0.4,34.6c0,1,0,2,0.4,2.8s1.4,1.6,2.3,1.3c1.2-0.3,1.6-1.8,1.7-3.1
		c0.9-9.9,0.4-20-0.1-30c-0.1-2.8-0.3-5.7,0.6-8.4c0.9-2.7,3.2-5.1,6-5.3c1.3-0.1,2.5,0.2,3.8,0.1s2.6-1,2.6-2.3
		c0-1.2-1.3-2-2.5-2.3c-1.6-0.3-3.3-0.1-4.9-0.2c-1.6-0.1-3.4-0.6-4.4-2c-0.6-0.9-0.8-2-0.9-3.1c-1.7-15.9,1.5-31.9-1.4-47.8
		c-0.2-1.3-1.1-3-2.4-2.6c-0.4,0.1-0.7,0.5-1,0.9c-0.8,1.5-0.8,3.2-0.8,4.9c0.2,8.6,0.4,17.2,0.6,25.8c0.1,4.5,0.7,9,0.8,13.5
		C195.4,92.6,195.1,100.4,195.2,108z"/>
</g>
</svg>
