<?xml version="1.0" encoding="utf-8"?>
<!-- Generator: Adobe Illustrator 19.1.0, SVG Export Plug-In . SVG Version: 6.00 Build 0)  -->
<!DOCTYPE svg PUBLIC "-//W3C//DTD SVG 1.1//EN" "http://www.w3.org/Graphics/SVG/1.1/DTD/svg11.dtd">
<svg version="1.1" id="Layer_1" xmlns="http://www.w3.org/2000/svg" xmlns:xlink="http://www.w3.org/1999/xlink" x="0px" y="0px"
	 viewBox="-335 287.3 351.3 195.7" style="enable-background:new -335 287.3 351.3 195.7;" xml:space="preserve">
<style type="text/css">
	.st0{fill:#FFFFFF;}
	.st1{fill:#4D4D4D;}
	.st2{fill:none;}
	.st3{enable-background:new    ;}
	.st4{fill:#99D4BF;}
</style>
<image style="overflow:visible;enable-background:new    ;" width="129" height="116" xlink:href="2A370F3E601BAF2D.jpeg"  transform="matrix(0.7567 0 0 0.7598 637.5461 1260.7896)">
</image>
<g>
	<path class="st0" d="M-687.1,1449.7c2.2,9.3,1.5,18.3,3.7,27.5c2,8.7,4.6,16.8,3.9,25.8c-0.6,6.7,0.2,13.7-1.6,20.3
		c-2.4,9-11.5,28.1-25.2,24.8c-4.3-1-7.6-4.2-9.5-7.8c-4.6-9-4.4-22.5-3.7-32.2c0.5-7.2,0.9-14.4,1.1-21.5c0.5-14-0.3-27.7-1.5-41.6
		c-1.2-13.3-3.2-26.8-1.9-40.1c0.2-2.6,0.6-5.2,1.6-7.7c3.3-8.1,18.7-15.9,25-5.5c3.4,5.7,4.4,14.6,5.3,20.9 M-699.5,1406.8
		c-0.2-3.3-1.8-6.5-2.3-9.8c-0.8-5.7-8.4-1.9-10,1.4c-1.3,2.8-2.2,5.7-2.3,8.7c-1.3,22.2,4.3,44.2,4,66.4
		c-0.1,9.9-0.6,19.7-0.8,29.6c-0.1,9.7,0.8,19.2,1.4,28.8c0.2,3.6,1.7,8.7,6.7,8.3c6.7-0.5,11.4-12.4,13-17.2
		c2.5-7.4,3.1-15.4,2.4-23.1c-1.5-16.7-5.3-33.1-8.8-49.4"/>
	<path class="st0" d="M-752.7,1424.6c-0.3-4.9-0.5-9.8-1.7-14.7c-0.3-1.1-0.4-2.2-0.6-3.2c-0.6-2.5-1.2-5-2-7.4
		c-1.2-3.4-3.6-5.5-7.8-5.9c-3.2-0.3-5.7,0.5-7.4,2.7c-1.5,1.9-2.7,4.1-3.3,6.4c-1.2,4.7-2.1,9.5-2.7,14.4
		c-0.8,6.3-1.3,12.7-1.3,19.1c0,5.7-0.6,11.4-0.9,17.1c-0.5,7.5-0.1,15.3-0.3,22.9c0,0.8-0.1,1.5-0.1,2.3c-0.1,1.8-0.3,3.7-0.4,5.5
		c-0.1,2.1,0,4.2-0.1,6.3c-0.1,3.3-0.3,6.6-0.4,10c0,0.5-0.2,1-0.2,1.5c0,3.8-0.2,7.6,0,11.3c0.2,5.6,0.4,11.2,1,16.8
		c0.2,2.4,1.3,4.7,2.1,7c0.5,1.4,2.1,1.6,3.3,2.1c0.7,0.3,1.5,0.3,2.3,0.4c2.9,0.3,5.8,0.6,8.8,0.8c3.3,0.2,5.5-1.6,7.5-3.6
		c0.8-0.8,1.4-1.9,1.9-3c1.3-2.8,2.6-5.6,3.8-8.5c1.1-2.7,1.6-5.4,1.4-8.3c-0.1-3.1-0.1-6.1-0.3-9.2c-0.3-4.1-0.8-8.3-1.3-12.4
		c-0.4-3-0.9-5.9-1.4-8.9c-0.5-2.6-1-5.3-1.4-7.9c-0.2-1.3-0.3-2.7-0.3-4c0-1.2,0.7-2.3,1.9-2.7c1.4-0.5,3.1-0.7,4.4,0.2
		c1.1,0.7,1.9,1.8,2,3c0.7,5.9,1.4,11.4,2.7,17.2c0.2,0.8,0.2,1.7,0.3,2.5c0.7,7.8,1.6,15.5,1.6,23.3c0,6-1.8,11-4.8,16.3
		c-4.3,7.5-7.3,12.9-17.5,13.2c-4.1,0.1-8.3,0-12.4-0.4c-2.4-0.2-4.8-0.6-6.9-1.8c-6.6-4-6.6-13.8-7-20.2c-0.2-4.3-0.5-8.7-0.5-13
		c0-4.7,0.1-9.3,0.5-14c0.8-9.7,0.9-19.6,1.1-29.3c0.1-2.9,0-5.9,0.1-8.8c0.1-3.1,0.2-6.3,0.4-9.4c0-0.4,0.2-0.8,0.1-1.1
		c-0.4-2.9,0-5.9,0.3-8.8c0.3-3,0.3-6,0.4-9c0.2-5.6,1.1-11.1,2-16.6c0.6-3.8,1.6-7.5,2.5-11.3c0.6-2.6,1.2-5.1,2.4-7.5
		c2.2-4.7,5.9-7.9,11.2-9.4c0.2-0.1,0.4-0.1,0.6-0.1c3.4-0.1,6.8-0.1,10,0.8c3.4,1,5.7,3.2,6.7,6.4c0.1,0.4,0.3,0.9,0.5,1.3
		c2.9,5.1,4.3,10.5,4.6,16.2c0.1,1.4,0.5,2.8,0.7,4.2c0.6,4.4,1.4,8.8-0.5,13.1c-0.4,0.9-0.9,1.7-1.6,2.5c-1,1.2-2.6,1-3.1-0.4
		c-0.4-0.9-0.5-2-0.6-3C-752.8,1426.5-752.7,1425.6-752.7,1424.6z"/>
	<path class="st0" d="M-351.7,1436c2.2-13-2.9-29.6-4.8-39.6c-0.6-3.5,1.9-14.2,6.5-7.9c5.3,7.3,4.5,23.3,5.8,32.1
		c1.8,12.2,3.6,24.3,5.2,36.5c1.4,10.6,2.7,21.2,3.7,31.8c0.9,9.8,3.3,22.3,1.4,32.1c0,9.2-2.3,23.3-13.1,25.8
		c-3.9,0.9-7.9-0.1-11.5-1.8c-10.4-4.8-18-14.9-19.7-26.3c-1.8-12.5,3.1-25.4,1.2-37.9c-0.4-2.7-1.1-5.4-0.3-8.1
		c2.2-7.5,8.8-3,8.3,2.8c-1,12.3-3.2,25.2-1.9,37.5c1,9.6,5.4,23.1,16.2,25.5c8.4,1.8,12.7-4.7,12.8-12.2
		c0.2-21.1-1.1-41.9-2.5-62.9c-0.3-4.5-1-12.4-7-11.9c-7,0.6-10.8,9.2-19.3,6.4c-6-2-8.5-8.9-9.8-15.1c-1.3-5.9-6.7-58.8,2.1-57.4
		c6.1,1,1.9,15.9,1.7,19.6c-0.8,11.9-2,24.5,1.7,35.9c2.1,6.5,9.9,14.1,16.8,7.9C-354.5,1445.5-352.5,1441-351.7,1436z"/>
	<path class="st0" d="M-411.7,1525.2c3.2-11.8-4.6-26.9-3.1-38.3c0.4-3,4.1-12.8,7.4-5.5c2.1,4.5,0,13.2,0.7,18.4
		c1,6.9,2.7,13.8,2.1,20.8c-0.8,9.2-8,23.7-17.8,26.7c-10.4,3.2-15.2-8.4-16.7-16.2c-6.7-35.9,5.8-73.3,3.7-109.9
		c-0.5-9.3-3.7-28.1,8.1-32.9c4.3-1.7,9.3,0.1,12.4,3.3c3.1,3.2,4.6,7.6,6,11.8c5.2,16.7,7.9,34.1,8.1,51.7c0,1.1-0.1,2.4-0.9,3.2
		c-0.7,0.6-1.7,0.7-2.7,0.8c-7.4,0.5-14.9,0.9-22.3,1.4c-0.8,0.1-1.7,0.1-2.3,0.7c-0.6,0.5-0.7,1.4-0.8,2.2
		c-1.6,13.3-3.3,26.6-3.6,39.9c-0.2,6.7-2.3,33.2,5.5,35.9c3.4,1.2,6.3,0.2,8.5-2.8c0.5-0.7,1.1-1.3,1.7-1.9
		C-414.4,1531.8-412.6,1528.6-411.7,1525.2z M-421.4,1453.5c3.5,0.9,3.5,0.9,5.8,0.4c1.8-0.5,3.7-1,5.5-1.5c1.4-0.4,2-1.4,1.9-2.9
		c-0.3-2.9-0.5-5.8-1.2-8.6c-1.1-4.7-0.9-9.5-1.5-14.2c-0.5-4.3-0.9-8.6-2.5-12.7c-1.4-3.6-2.7-7.3-3.8-11.1c-0.7-2.2-2-4.1-3.3-5.9
		c-0.7-0.9-1.6-1.2-2.8-1.1c-2.4,0.3-3.7,1.3-4.5,3.9c-1.3,4.6-1.9,9.3-1.2,14c0.2,1.4,0.3,2.9,0.4,4.3c0.1,2.8,0.1,5.5,0.3,8.3
		c0.1,2.8,0.6,5.7,0.3,8.5c-0.2,2.6,0,5.1,0.4,7.6c0.1,0.6-0.1,1.2-0.1,1.8c-0.1,1.9-0.4,3.7-0.3,5.6c0.1,1.9,0.9,2.6,2.9,2.9
		C-423.8,1453.1-422.6,1453.3-421.4,1453.5z"/>
	<path class="st0" d="M-616.7,1511.6c-1.5,16.8-6.3,33.2-19.9,35.9c-12.1,2.4-17.3-8.2-19.7-18.8c-1.3-6-1.3-12.1-1.9-18.1
		c-4.2-39.1-1.2-78.7-3.8-117.9c-0.2-2.3,1.3-4.5,3.1-5.1c6.4-2.1,5.6,21.3,5.9,25.7c0.7,13.6-0.3,27.2,0.2,40.7
		c0.6,15.3,0.1,31.2,1.4,46.4c0.8,9.3,0.4,19,3,27.9c1,3.4,2.9,9.9,6.3,11.1c3.6,1.3,8.5-2.5,10.2-5.6c5.1-9.5,7-19.9,7-30.9
		c0.1-22.7-2-47.7-5.9-70.3c-1.7-9.7-4.4-19.2-6-28.9c-0.5-3.3-4.6-19.8,3.4-15.4c1.9,1,2.6,3.5,3.1,5.8
		c6.1,28.2,12.2,56.7,13.6,85.8C-616.4,1487.2-615.7,1499.5-616.7,1511.6z"/>
	<path class="st0" d="M-462.6,1460.4c-1.6,11.8-3.4,23.7-4,35.6c-0.5,10.9,0.1,21.9,1.8,32.5c0.4,2.5,1.4,12.5,0.4,14.9
		c-1.1,2.7-3.4,5.4-5.6,2.9c-1.3-1.5-2.8-11.9-2.9-13.9c-1.2-19.6-2.1-38,1.5-57.7c2.5-16.1,5.5-32.4,4.5-48.7
		c-0.5-8-1.8-15.3-5.5-22.1c-1.7-3.1-7.5-14.5-11.6-7.2c-1.1,2-1.1,4.3-1.1,6.6c-0.1,26.1-1,52.5,0.3,78.5c1.1,20.4-1,41.6-1.6,62.1
		c-0.1,4.3-4.1,6.6-6.7,2.5c-1.3-2.1-1.2-4.8-1.1-7.3c1.6-36.6,3.1-73.2,1.1-109.6c-0.5-8.8-2.4-51.6,16.2-43
		c9.4,4.3,14.7,22.1,15.9,32C-459.3,1432.4-460.8,1446.3-462.6,1460.4z"/>
	<path class="st0" d="M-591,1402.8c-0.9-3.5,9.4-11.1,11.3-12c5-2.4,11.6-2.6,15.1,2.3c6.8,9.5,7.2,19.2,5.5,30.9
		c-0.3,1.7-0.5,3.5-1.5,5c-2.5,3.7-7.9,1.6-7.4-2.8c0.1-1,0.4-2.1,0.6-3.1c0.6-3.6,1.2-7.2,1.7-10.8c1.5-10.2-7.8-19.9-15.6-9.7
		c-6.3,8.3-6.4,18.8-5.9,28.7c2.1,36.7-0.7,74.1,0.4,111c0.1,1.9,0,4-1.4,5.3c-1.7,1.6-4.5,0.6-5.7-1.4c-1.2-2-1.2-4.5-1.2-6.8
		c0.1-14.1,1.2-28.4,0.6-42.5c-1.5-35.1-2.6-70-5.2-105c-0.1-1.8-0.1-4,1.4-4.9c0.8-0.5,1.8-0.4,2.6,0c2.6,1.2,3.3,4.6,3.4,7.6
		c0.1,3-0.3,6.2,1.2,8.7C-590.9,1403.1-590.9,1402.9-591,1402.8z"/>
	<path class="st0" d="M-537.1,1487.6c0.1,17.6-0.7,35.1-0.7,52.8c0,1.5,0,3,0.6,4.3c0.6,1.3,2.1,2.4,3.5,2c1.8-0.5,2.4-2.8,2.6-4.7
		c1.4-15.2,0.6-30.4-0.2-45.7c-0.2-4.3-0.4-8.7,1-12.8s4.9-7.8,9.2-8.1c1.9-0.2,3.9,0.4,5.8,0.1c1.9-0.2,4-1.6,3.9-3.5
		c-0.1-1.9-2-3.1-3.9-3.5c-2.5-0.5-5-0.2-7.5-0.4c-2.5-0.2-5.2-0.9-6.6-3c-0.9-1.4-1.2-3.1-1.4-4.7c-2.6-24.2,2.3-48.6-2.1-72.9
		c-0.4-2-1.7-4.6-3.6-3.9c-0.6,0.2-1.1,0.8-1.5,1.4c-1.3,2.2-1.3,4.9-1.2,7.5c0.3,13.1,0.6,26.2,0.9,39.3c0.2,6.9,1.1,13.7,1.2,20.5
		C-536.7,1464-537.1,1475.8-537.1,1487.6z"/>
</g>
<rect x="452.1" y="1261" class="st1" width="93.5" height="88.1"/>
<rect x="458.7" y="1298.8" class="st2" width="158" height="76"/>
<text transform="matrix(1 0 0 1 458.6727 1311.5544)" class="st0" style="font-family:'ArialMT'; font-size:18px;">#4d4d4d</text>
<rect x="564" y="1298.8" class="st2" width="53.3" height="20"/>
<text transform="matrix(1 0 0 1 564.0095 1311.5562)" class="st4" style="font-family:'ArialMT'; font-size:18px;">#ffffff</text>
<rect x="645.3" y="1298.1" class="st2" width="76" height="17.3"/>
<text transform="matrix(1 0 0 1 645.3398 1310.891)" class="st0" style="font-family:'ArialMT'; font-size:18px;">#99d4bf</text>
<g>
	<path class="st4" d="M-240.4,374.6c1.4,6.1,1,12,2.4,18.1c1.3,5.7,3,11,2.6,16.9c-0.4,4.4,0.1,9-1,13.3
		c-1.6,5.9-7.5,18.4-16.5,16.3c-2.8-0.7-5-2.8-6.2-5.1c-3-5.9-2.9-14.8-2.5-21.1c0.3-4.7,0.6-9.4,0.7-14.1c0.3-9.2-0.2-18.1-1-27.3
		c-0.8-8.7-2.1-17.6-1.3-26.3c0.2-1.7,0.4-3.4,1-5.1c2.1-5.3,12.3-10.4,16.4-3.6c2.2,3.7,2.9,9.5,3.5,13.7 M-248.5,346.5
		c-0.1-2.2-1.2-4.2-1.5-6.4c-0.5-3.7-5.5-1.2-6.5,0.9c-0.9,1.8-1.4,3.7-1.5,5.7c-0.9,14.5,2.8,29,2.6,43.6
		c-0.1,6.5-0.4,12.9-0.5,19.4c-0.1,6.4,0.5,12.6,0.9,18.9c0.1,2.3,1.1,5.7,4.4,5.5c4.4-0.3,7.5-8.1,8.6-11.3
		c1.7-4.9,2-10.1,1.6-15.1c-1-10.9-3.5-21.7-5.8-32.4"/>
	<path class="st4" d="M-283.4,358.2c-0.2-3.2-0.3-6.5-1.1-9.6c-0.2-0.7-0.2-1.4-0.4-2.1c-0.4-1.6-0.8-3.3-1.3-4.9
		c-0.8-2.2-2.3-3.6-5.1-3.9c-2.1-0.2-3.7,0.3-4.8,1.8c-1,1.2-1.8,2.7-2.2,4.2c-0.8,3.1-1.4,6.3-1.8,9.4c-0.5,4.2-0.9,8.3-0.9,12.5
		c0,3.7-0.4,7.5-0.6,11.2c-0.3,4.9-0.1,10-0.2,15c0,0.5,0,1-0.1,1.5c-0.1,1.2-0.2,2.4-0.3,3.6c-0.1,1.4,0,2.8-0.1,4.1
		c-0.1,2.2-0.2,4.4-0.3,6.5c0,0.3-0.1,0.7-0.1,1c0,2.5-0.1,5,0,7.4c0.1,3.7,0.3,7.4,0.6,11c0.2,1.6,0.9,3.1,1.4,4.6
		c0.3,0.9,1.3,1.1,2.2,1.4c0.5,0.2,1,0.2,1.5,0.2c1.9,0.2,3.8,0.4,5.8,0.5c2.2,0.2,3.6-1.1,4.9-2.4c0.5-0.6,0.9-1.2,1.3-1.9
		c0.9-1.8,1.7-3.7,2.5-5.6c0.7-1.7,1-3.6,0.9-5.4c-0.1-2,0-4-0.2-6c-0.2-2.7-0.5-5.4-0.9-8.1c-0.2-1.9-0.6-3.9-0.9-5.8
		c-0.3-1.7-0.6-3.5-0.9-5.2c-0.1-0.9-0.2-1.8-0.2-2.6c0-0.8,0.4-1.5,1.3-1.8s2-0.5,2.9,0.2c0.7,0.5,1.2,1.2,1.3,2
		c0.5,3.9,0.9,7.5,1.8,11.3c0.1,0.5,0.1,1.1,0.2,1.6c0.4,5.1,1,10.2,1,15.3c0,4-1.2,7.2-3.2,10.7c-2.8,4.9-4.8,8.4-11.5,8.7
		c-2.7,0.1-5.4,0-8.1-0.3c-1.6-0.2-3.2-0.4-4.5-1.2c-4.3-2.6-4.3-9.1-4.6-13.2c-0.1-2.8-0.3-5.7-0.3-8.5c0-3.1,0.1-6.1,0.3-9.2
		c0.5-6.4,0.6-12.8,0.7-19.2c0-1.9,0-3.8,0.1-5.8c0.1-2.1,0.2-4.1,0.2-6.2c0-0.3,0.1-0.5,0.1-0.8c-0.2-1.9,0-3.8,0.2-5.8
		s0.2-3.9,0.3-5.9c0.1-3.7,0.7-7.3,1.3-10.9c0.4-2.5,1.1-4.9,1.6-7.4c0.4-1.7,0.8-3.3,1.6-4.9c1.4-3.1,3.9-5.2,7.3-6.2
		c0.1,0,0.3-0.1,0.4-0.1c2.2-0.1,4.4-0.1,6.6,0.6s3.7,2.1,4.4,4.2c0.1,0.3,0.2,0.6,0.3,0.8c1.9,3.3,2.8,6.9,3,10.6
		c0.1,0.9,0.4,1.8,0.5,2.7c0.4,2.9,0.9,5.8-0.3,8.6c-0.3,0.6-0.6,1.1-1,1.6c-0.6,0.8-1.7,0.6-2.1-0.3c-0.3-0.6-0.3-1.3-0.4-2
		C-283.5,359.4-283.4,358.8-283.4,358.2z"/>
	<path class="st4" d="M-20.4,365.6c1.5-8.5-1.9-19.4-3.1-26c-0.4-2.3,1.2-9.3,4.2-5.2c3.5,4.8,2.9,15.3,3.8,21.1
		c1.2,8,2.4,16,3.4,24c0.9,6.9,1.8,13.9,2.4,20.9c0.6,6.4,2.2,14.6,0.9,21.1c0,6-1.5,15.3-8.6,17c-2.5,0.6-5.2-0.1-7.5-1.1
		c-6.8-3.1-11.8-9.8-12.9-17.3c-1.2-8.2,2-16.7,0.8-24.8c-0.3-1.8-0.7-3.6-0.2-5.3c1.5-4.9,5.7-2,5.4,1.9
		c-0.6,8.1-2.1,16.5-1.2,24.6c0.7,6.3,3.5,15.2,10.6,16.7c5.5,1.2,8.3-3.1,8.4-8c0.2-13.8-0.7-27.5-1.7-41.3c-0.2-3-0.7-8.1-4.6-7.8
		c-4.6,0.4-7.1,6-12.7,4.2c-3.9-1.3-5.6-5.9-6.4-9.9c-0.8-3.9-4.4-38.6,1.4-37.6c4,0.6,1.3,10.4,1.1,12.8
		c-0.5,7.8-1.3,16.1,1.1,23.5c1.4,4.3,6.5,9.2,11,5.2C-22.2,371.9-20.9,369-20.4,365.6z"/>
	<path class="st4" d="M-59.7,424.2c2.1-7.8-3-17.6-2-25.1c0.3-1.9,2.7-8.4,4.8-3.6c1.4,3,0,8.7,0.5,12.1c0.6,4.5,1.8,9,1.4,13.7
		c-0.5,6-5.3,15.5-11.7,17.5c-6.8,2.1-10-5.5-10.9-10.6c-4.4-23.5,3.8-48.1,2.4-72.1c-0.4-6.1-2.4-18.4,5.3-21.6
		c2.8-1.1,6.1,0.1,8.1,2.2s3,5,3.9,7.8c3.4,10.9,5.2,22.4,5.3,33.9c0,0.7,0,1.6-0.6,2.1c-0.5,0.4-1.1,0.5-1.7,0.5
		c-4.9,0.3-9.8,0.6-14.7,0.9c-0.5,0-1.1,0.1-1.5,0.4c-0.4,0.4-0.5,0.9-0.5,1.4c-1.1,8.7-2.1,17.4-2.3,26.2
		c-0.1,4.4-1.5,21.8,3.6,23.6c2.3,0.8,4.2,0.2,5.6-1.9c0.3-0.4,0.7-0.9,1.1-1.2C-61.5,428.5-60.3,426.4-59.7,424.2z M-66.1,377.1
		c2.3,0.6,2.3,0.6,3.8,0.2c1.2-0.3,2.4-0.6,3.6-1c0.9-0.3,1.3-0.9,1.2-1.9c-0.2-1.9-0.3-3.8-0.8-5.6c-0.7-3.1-0.6-6.2-1-9.3
		c-0.3-2.8-0.6-5.7-1.6-8.3c-0.9-2.4-1.8-4.8-2.5-7.3c-0.5-1.5-1.3-2.7-2.2-3.9c-0.4-0.6-1.1-0.8-1.8-0.7c-1.6,0.2-2.5,0.9-2.9,2.6
		c-0.9,3-1.3,6.1-0.8,9.2c0.1,0.9,0.2,1.9,0.3,2.8c0.1,1.8,0.1,3.6,0.2,5.4c0.1,1.9,0.4,3.7,0.2,5.5c-0.1,1.7,0,3.3,0.2,5
		c0.1,0.4,0,0.8-0.1,1.2c-0.1,1.2-0.2,2.4-0.2,3.7c0,1.3,0.6,1.7,1.9,1.9C-67.7,376.8-66.9,377-66.1,377.1z"/>
	<path class="st4" d="M-194.2,415.2c-1,11-4.1,21.8-13.1,23.6c-7.9,1.6-11.4-5.3-12.9-12.4c-0.9-3.9-0.8-7.9-1.3-11.9
		c-2.7-25.7-0.8-51.6-2.5-77.4c-0.1-1.5,0.8-3,2.1-3.4c4.2-1.4,3.7,14,3.8,16.8c0.5,8.9-0.2,17.8,0.2,26.7
		c0.4,10.1,0.1,20.4,0.9,30.4c0.5,6.1,0.2,12.5,2,18.3c0.7,2.3,1.9,6.5,4.2,7.3s5.6-1.6,6.7-3.7c3.3-6.2,4.6-13.1,4.6-20.2
		c0.1-14.9-1.3-31.3-3.9-46.1c-1.1-6.4-2.9-12.6-3.9-19c-0.3-2.2-3-13,2.2-10.1c1.2,0.7,1.7,2.3,2,3.8c4,18.5,8,37.2,8.9,56.3
		C-194,399.3-193.5,407.3-194.2,415.2z"/>
	<path class="st4" d="M-93.2,381.6c-1,7.8-2.3,15.6-2.6,23.3c-0.3,7.2,0.1,14.3,1.2,21.3c0.3,1.6,0.9,8.2,0.3,9.8
		c-0.7,1.8-2.2,3.6-3.6,1.9c-0.8-1-1.8-7.8-1.9-9.1c-0.8-12.9-1.3-24.9,1-37.8c1.6-10.6,3.6-21.3,3-31.9c-0.3-5.2-1.2-10.1-3.6-14.5
		c-1.1-2-4.9-9.5-7.6-4.7c-0.7,1.3-0.7,2.8-0.8,4.3c0,17.1-0.7,34.4,0.2,51.5c0.7,13.4-0.6,27.3-1,40.7c-0.1,2.8-2.7,4.3-4.4,1.6
		c-0.9-1.4-0.8-3.1-0.7-4.8c1-24,2-48,0.7-71.9c-0.3-5.8-1.6-33.8,10.6-28.2c6.2,2.8,9.6,14.5,10.4,21
		C-91,363.3-91.9,372.4-93.2,381.6z"/>
	<path class="st4" d="M-177.3,343.9c-0.6-2.3,6.2-7.3,7.4-7.9c3.3-1.6,7.6-1.7,9.9,1.5c4.5,6.2,4.7,12.6,3.6,20.2
		c-0.2,1.1-0.3,2.3-1,3.3c-1.6,2.4-5.2,1-4.8-1.8c0.1-0.7,0.3-1.3,0.4-2c0.4-2.4,0.8-4.7,1.1-7.1c1-6.7-5.1-13-10.2-6.3
		c-4.2,5.5-4.2,12.3-3.9,18.8c1.3,24.1-0.5,48.6,0.2,72.8c0,1.2,0,2.6-0.9,3.5c-1.1,1-3,0.4-3.8-0.9s-0.8-2.9-0.8-4.5
		c0-9.3,0.8-18.6,0.4-27.9c-1-23-1.7-45.9-3.4-68.8c-0.1-1.2,0-2.6,0.9-3.2c0.5-0.3,1.2-0.3,1.7,0c1.7,0.8,2.2,3,2.2,5
		s-0.2,4.1,0.8,5.7C-177.3,344.1-177.3,344-177.3,343.9z"/>
	<path class="st4" d="M-142,399.5c0.1,11.5-0.4,23-0.4,34.6c0,1,0,2,0.4,2.8c0.4,0.9,1.4,1.6,2.3,1.3c1.2-0.3,1.6-1.8,1.7-3.1
		c0.9-9.9,0.4-20-0.1-30c-0.1-2.8-0.3-5.7,0.6-8.4c0.9-2.7,3.2-5.1,6-5.3c1.3-0.1,2.5,0.2,3.8,0.1s2.6-1,2.6-2.3
		c0-1.2-1.3-2-2.5-2.3c-1.6-0.3-3.3-0.1-4.9-0.2c-1.6-0.1-3.4-0.6-4.4-2c-0.6-0.9-0.8-2-0.9-3.1c-1.7-15.9,1.5-31.9-1.4-47.8
		c-0.2-1.3-1.1-3-2.4-2.6c-0.4,0.1-0.7,0.5-1,0.9c-0.8,1.5-0.8,3.2-0.8,4.9c0.2,8.6,0.4,17.2,0.6,25.8c0.1,4.5,0.7,9,0.8,13.5
		C-141.7,384.1-142,391.8-142,399.5z"/>
</g>
<rect x="246.9" y="939.7" class="st2" width="236.1" height="21.2"/>
<text transform="matrix(1 0 0 1 246.918 956.6947)" class="st4" style="font-family:'ArialMT'; font-size:24px;">Museo Sans Rounded </text>
<rect x="270.9" y="1017.1" class="st2" width="243.4" height="21.2"/>
<text transform="matrix(1 0 0 1 270.9275 1034.1497)" class="st4" style="font-family:'ArialMT'; font-size:24px;">100 </text>
<text transform="matrix(1 0 0 1 312.9275 1034.1497)" class="st4" style="font-family:'ArialMT'; font-size:24px; letter-spacing:24;"> </text>
<text transform="matrix(1 0 0 1 342.9275 1034.1497)" class="st4" style="font-family:'ArialMT'; font-size:24px; letter-spacing:30;"> </text>
<text transform="matrix(1 0 0 1 378.9275 1034.1497)" class="st4" style="font-family:'ArialMT'; font-size:24px;">300 </text>
<text transform="matrix(1 0 0 1 420.9275 1034.1497)" class="st4" style="font-family:'ArialMT'; font-size:24px; letter-spacing:24;"> </text>
<text transform="matrix(1 0 0 1 450.9275 1034.1497)" class="st4" style="font-family:'ArialMT'; font-size:24px;">   500</text>
</svg>
